<svg width="300" height="1019" viewBox="0 0 300 1019" fill="none" xmlns="http://www.w3.org/2000/svg">
<g clip-path="url(#clip0_6_753)">
<g clip-path="url(#clip1_6_753)">
<circle cx="20" cy="20" r="20" fill="white" fill-opacity="0.08"/>
<g clip-path="url(#clip2_6_753)">
<rect x="56" width="120" height="16" rx="8" fill="white" fill-opacity="0.16"/>
<rect x="56" y="22" width="190" height="16" rx="8" fill="white" fill-opacity="0.05"/>
<g clip-path="url(#clip3_6_753)">
<rect x="56" y="44" width="67" height="16" rx="8" fill="white" fill-opacity="0.05"/>
<rect x="127" y="44" width="78" height="16" rx="8" fill="white" fill-opacity="0.05"/>
<rect x="209" y="44" width="59" height="16" rx="8" fill="white" fill-opacity="0.05"/>
</g>
<g clip-path="url(#clip4_6_753)">
<rect x="56" y="66" width="73" height="16" rx="8" fill="white" fill-opacity="0.05"/>
<rect x="133" y="66" width="64" height="16" rx="8" fill="white" fill-opacity="0.05"/>
<rect x="201" y="66" width="31" height="16" rx="8" fill="white" fill-opacity="0.05"/>
</g>
<g clip-path="url(#clip5_6_753)">
<rect x="56" y="88" width="27" height="16" rx="8" fill="white" fill-opacity="0.05"/>
<rect x="87" y="88" width="58" height="16" rx="8" fill="white" fill-opacity="0.05"/>
<rect x="149" y="88" width="38" height="16" rx="8" fill="white" fill-opacity="0.05"/>
</g>
<rect x="56" y="110" width="220" height="197.273" rx="8" fill="white" fill-opacity="0.03"/>
</g>
</g>
<g clip-path="url(#clip6_6_753)">
<circle cx="20" cy="351.273" r="20" fill="white" fill-opacity="0.08"/>
<g clip-path="url(#clip7_6_753)">
<rect x="56" y="331.273" width="87" height="16" rx="8" fill="white" fill-opacity="0.16"/>
<g clip-path="url(#clip8_6_753)">
<rect x="56" y="353.273" width="39" height="16" rx="8" fill="white" fill-opacity="0.05"/>
<rect x="99" y="353.273" width="57" height="16" rx="8" fill="white" fill-opacity="0.05"/>
</g>
</g>
</g>
<g clip-path="url(#clip9_6_753)">
<circle cx="20" cy="415.273" r="20" fill="white" fill-opacity="0.08"/>
<g clip-path="url(#clip10_6_753)">
<rect x="56" y="395.273" width="118" height="16" rx="8" fill="white" fill-opacity="0.16"/>
<g clip-path="url(#clip11_6_753)">
<rect x="56" y="417.273" width="46" height="16" rx="8" fill="white" fill-opacity="0.05"/>
<rect x="106" y="417.273" width="40" height="16" rx="8" fill="white" fill-opacity="0.05"/>
<rect x="150" y="417.273" width="47" height="16" rx="8" fill="white" fill-opacity="0.05"/>
<rect x="201" y="417.273" width="31" height="16" rx="8" fill="white" fill-opacity="0.05"/>
<rect x="236" y="417.273" width="47" height="16" rx="8" fill="white" fill-opacity="0.05"/>
</g>
<g clip-path="url(#clip12_6_753)">
<rect x="56" y="439.273" width="75" height="16" rx="8" fill="white" fill-opacity="0.05"/>
<rect x="135" y="439.273" width="57" height="16" rx="8" fill="white" fill-opacity="0.05"/>
<rect x="196" y="439.273" width="54" height="16" rx="8" fill="white" fill-opacity="0.05"/>
</g>
<g clip-path="url(#clip13_6_753)">
<rect x="56" y="461.273" width="45" height="16" rx="8" fill="white" fill-opacity="0.05"/>
<rect x="105" y="461.273" width="43" height="16" rx="8" fill="white" fill-opacity="0.05"/>
<rect x="152" y="461.273" width="69" height="16" rx="8" fill="white" fill-opacity="0.05"/>
</g>
<g clip-path="url(#clip14_6_753)">
<rect x="56" y="483.273" width="57" height="16" rx="8" fill="white" fill-opacity="0.05"/>
<rect x="117" y="483.273" width="38" height="16" rx="8" fill="white" fill-opacity="0.05"/>
</g>
</g>
</g>
<g clip-path="url(#clip15_6_753)">
<circle cx="20" cy="543.273" r="20" fill="white" fill-opacity="0.08"/>
<g clip-path="url(#clip16_6_753)">
<rect x="56" y="523.273" width="95" height="16" rx="8" fill="white" fill-opacity="0.16"/>
<g clip-path="url(#clip17_6_753)">
<rect x="56" y="545.273" width="77" height="16" rx="8" fill="white" fill-opacity="0.05"/>
<rect x="137" y="545.273" width="29" height="16" rx="8" fill="white" fill-opacity="0.05"/>
</g>
<g clip-path="url(#clip18_6_753)">
<rect x="56" y="567.273" width="51" height="16" rx="8" fill="white" fill-opacity="0.05"/>
<rect x="111" y="567.273" width="51" height="16" rx="8" fill="white" fill-opacity="0.05"/>
</g>
</g>
</g>
<g clip-path="url(#clip19_6_753)">
<circle cx="20" cy="627.273" r="20" fill="white" fill-opacity="0.08"/>
<g clip-path="url(#clip20_6_753)">
<rect x="56" y="607.273" width="65" height="16" rx="8" fill="white" fill-opacity="0.16"/>
<g clip-path="url(#clip21_6_753)">
<rect x="56" y="629.273" width="34" height="16" rx="8" fill="white" fill-opacity="0.05"/>
<rect x="94" y="629.273" width="78" height="16" rx="8" fill="white" fill-opacity="0.05"/>
<rect x="176" y="629.273" width="77" height="16" rx="8" fill="white" fill-opacity="0.05"/>
</g>
<g clip-path="url(#clip22_6_753)">
<rect x="56" y="651.273" width="70" height="16" rx="8" fill="white" fill-opacity="0.05"/>
<rect x="130" y="651.273" width="53" height="16" rx="8" fill="white" fill-opacity="0.05"/>
<rect x="187" y="651.273" width="42" height="16" rx="8" fill="white" fill-opacity="0.05"/>
<rect x="233" y="651.273" width="58" height="16" rx="8" fill="white" fill-opacity="0.05"/>
</g>
<g clip-path="url(#clip23_6_753)">
<rect x="56" y="673.273" width="74" height="16" rx="8" fill="white" fill-opacity="0.05"/>
<rect x="134" y="673.273" width="57" height="16" rx="8" fill="white" fill-opacity="0.05"/>
</g>
<rect x="56" y="695.273" width="201" height="111" rx="8" fill="white" fill-opacity="0.03"/>
</g>
</g>
<g clip-path="url(#clip24_6_753)">
<circle cx="20" cy="850.273" r="20" fill="white" fill-opacity="0.08"/>
<g clip-path="url(#clip25_6_753)">
<rect x="56" y="830.273" width="116" height="16" rx="8" fill="white" fill-opacity="0.16"/>
<g clip-path="url(#clip26_6_753)">
<rect x="56" y="852.273" width="62" height="16" rx="8" fill="white" fill-opacity="0.05"/>
<rect x="122" y="852.273" width="54" height="16" rx="8" fill="white" fill-opacity="0.05"/>
<rect x="180" y="852.273" width="73" height="16" rx="8" fill="white" fill-opacity="0.05"/>
</g>
<g clip-path="url(#clip27_6_753)">
<rect x="56" y="874.273" width="48" height="16" rx="8" fill="white" fill-opacity="0.05"/>
<rect x="108" y="874.273" width="71" height="16" rx="8" fill="white" fill-opacity="0.05"/>
<rect x="183" y="874.273" width="41" height="16" rx="8" fill="white" fill-opacity="0.05"/>
<rect x="228" y="874.273" width="38" height="16" rx="8" fill="white" fill-opacity="0.05"/>
</g>
<g clip-path="url(#clip28_6_753)">
<rect x="56" y="896.273" width="61" height="16" rx="8" fill="white" fill-opacity="0.05"/>
<rect x="121" y="896.273" width="57" height="16" rx="8" fill="white" fill-opacity="0.05"/>
<rect x="182" y="896.273" width="62" height="16" rx="8" fill="white" fill-opacity="0.05"/>
</g>
</g>
</g>
<g clip-path="url(#clip29_6_753)">
<circle cx="20" cy="956.273" r="20" fill="white" fill-opacity="0.08"/>
<g clip-path="url(#clip30_6_753)">
<rect x="56" y="936.273" width="102" height="16" rx="8" fill="white" fill-opacity="0.16"/>
<g clip-path="url(#clip31_6_753)">
<rect x="56" y="958.273" width="49" height="16" rx="8" fill="white" fill-opacity="0.05"/>
<rect x="109" y="958.273" width="38" height="16" rx="8" fill="white" fill-opacity="0.05"/>
</g>
<g clip-path="url(#clip32_6_753)">
<rect x="56" y="980.273" width="52" height="16" rx="8" fill="white" fill-opacity="0.05"/>
<rect x="112" y="980.273" width="75" height="16" rx="8" fill="white" fill-opacity="0.05"/>
<rect x="191" y="980.273" width="67" height="16" rx="8" fill="white" fill-opacity="0.05"/>
</g>
<g clip-path="url(#clip33_6_753)">
<rect x="56" y="1002.27" width="40" height="16" rx="8" fill="white" fill-opacity="0.05"/>
<rect x="100" y="1002.27" width="69" height="16" rx="8" fill="white" fill-opacity="0.05"/>
<rect x="173" y="1002.27" width="61" height="16" rx="8" fill="white" fill-opacity="0.05"/>
</g>
</g>
</g>
</g>
<defs>
<clipPath id="clip0_6_753">
<rect width="300" height="1018.27" fill="white"/>
</clipPath>
<clipPath id="clip1_6_753">
<rect width="276" height="307.273" fill="white"/>
</clipPath>
<clipPath id="clip2_6_753">
<rect width="220" height="307.273" fill="white" transform="translate(56)"/>
</clipPath>
<clipPath id="clip3_6_753">
<rect width="212" height="16" fill="white" transform="translate(56 44)"/>
</clipPath>
<clipPath id="clip4_6_753">
<rect width="176" height="16" fill="white" transform="translate(56 66)"/>
</clipPath>
<clipPath id="clip5_6_753">
<rect width="131" height="16" fill="white" transform="translate(56 88)"/>
</clipPath>
<clipPath id="clip6_6_753">
<rect width="156" height="40" fill="white" transform="translate(0 331.273)"/>
</clipPath>
<clipPath id="clip7_6_753">
<rect width="100" height="38" fill="white" transform="translate(56 331.273)"/>
</clipPath>
<clipPath id="clip8_6_753">
<rect width="100" height="16" fill="white" transform="translate(56 353.273)"/>
</clipPath>
<clipPath id="clip9_6_753">
<rect width="283" height="104" fill="white" transform="translate(0 395.273)"/>
</clipPath>
<clipPath id="clip10_6_753">
<rect width="227" height="104" fill="white" transform="translate(56 395.273)"/>
</clipPath>
<clipPath id="clip11_6_753">
<rect width="227" height="16" fill="white" transform="translate(56 417.273)"/>
</clipPath>
<clipPath id="clip12_6_753">
<rect width="194" height="16" fill="white" transform="translate(56 439.273)"/>
</clipPath>
<clipPath id="clip13_6_753">
<rect width="165" height="16" fill="white" transform="translate(56 461.273)"/>
</clipPath>
<clipPath id="clip14_6_753">
<rect width="99" height="16" fill="white" transform="translate(56 483.273)"/>
</clipPath>
<clipPath id="clip15_6_753">
<rect width="166" height="60" fill="white" transform="translate(0 523.273)"/>
</clipPath>
<clipPath id="clip16_6_753">
<rect width="110" height="60" fill="white" transform="translate(56 523.273)"/>
</clipPath>
<clipPath id="clip17_6_753">
<rect width="110" height="16" fill="white" transform="translate(56 545.273)"/>
</clipPath>
<clipPath id="clip18_6_753">
<rect width="106" height="16" fill="white" transform="translate(56 567.273)"/>
</clipPath>
<clipPath id="clip19_6_753">
<rect width="291" height="199" fill="white" transform="translate(0 607.273)"/>
</clipPath>
<clipPath id="clip20_6_753">
<rect width="235" height="199" fill="white" transform="translate(56 607.273)"/>
</clipPath>
<clipPath id="clip21_6_753">
<rect width="197" height="16" fill="white" transform="translate(56 629.273)"/>
</clipPath>
<clipPath id="clip22_6_753">
<rect width="235" height="16" fill="white" transform="translate(56 651.273)"/>
</clipPath>
<clipPath id="clip23_6_753">
<rect width="135" height="16" fill="white" transform="translate(56 673.273)"/>
</clipPath>
<clipPath id="clip24_6_753">
<rect width="266" height="82" fill="white" transform="translate(0 830.273)"/>
</clipPath>
<clipPath id="clip25_6_753">
<rect width="210" height="82" fill="white" transform="translate(56 830.273)"/>
</clipPath>
<clipPath id="clip26_6_753">
<rect width="197" height="16" fill="white" transform="translate(56 852.273)"/>
</clipPath>
<clipPath id="clip27_6_753">
<rect width="210" height="16" fill="white" transform="translate(56 874.273)"/>
</clipPath>
<clipPath id="clip28_6_753">
<rect width="188" height="16" fill="white" transform="translate(56 896.273)"/>
</clipPath>
<clipPath id="clip29_6_753">
<rect width="258" height="82" fill="white" transform="translate(0 936.273)"/>
</clipPath>
<clipPath id="clip30_6_753">
<rect width="202" height="82" fill="white" transform="translate(56 936.273)"/>
</clipPath>
<clipPath id="clip31_6_753">
<rect width="91" height="16" fill="white" transform="translate(56 958.273)"/>
</clipPath>
<clipPath id="clip32_6_753">
<rect width="202" height="16" fill="white" transform="translate(56 980.273)"/>
</clipPath>
<clipPath id="clip33_6_753">
<rect width="178" height="16" fill="white" transform="translate(56 1002.27)"/>
</clipPath>
</defs>
</svg>
