<svg width="436" height="1039" viewBox="0 0 436 1039" fill="none" xmlns="http://www.w3.org/2000/svg">
<g clip-path="url(#clip0_6_753)">
<g clip-path="url(#clip1_6_753)">
<circle cx="20.5123" cy="20.3345" r="20" fill="white" fill-opacity="0.08"/>
<g clip-path="url(#clip2_6_753)">
<rect x="56.5123" y="0.334473" width="120" height="16" rx="8" fill="white" fill-opacity="0.16"/>
<g clip-path="url(#clip3_6_753)">
<rect x="56.5123" y="22.3345" width="70" height="16" rx="8" fill="white" fill-opacity="0.05"/>
<rect x="130.512" y="22.3345" width="70" height="16" rx="8" fill="white" fill-opacity="0.05"/>
<rect x="204.512" y="22.3345" width="44" height="16" rx="8" fill="white" fill-opacity="0.05"/>
<rect x="252.512" y="22.3345" width="76" height="16" rx="8" fill="white" fill-opacity="0.05"/>
<rect x="332.512" y="22.3345" width="30" height="16" rx="8" fill="white" fill-opacity="0.05"/>
<rect x="366.512" y="22.3345" width="69" height="16" rx="8" fill="white" fill-opacity="0.05"/>
</g>
<g clip-path="url(#clip4_6_753)">
<rect x="56.5123" y="44.3345" width="67" height="16" rx="8" fill="white" fill-opacity="0.05"/>
<rect x="127.512" y="44.3345" width="78" height="16" rx="8" fill="white" fill-opacity="0.05"/>
<rect x="209.512" y="44.3345" width="59" height="16" rx="8" fill="white" fill-opacity="0.05"/>
<rect x="272.512" y="44.3345" width="39" height="16" rx="8" fill="white" fill-opacity="0.05"/>
<rect x="315.512" y="44.3345" width="30" height="16" rx="8" fill="white" fill-opacity="0.05"/>
<rect x="349.512" y="44.3345" width="47" height="16" rx="8" fill="white" fill-opacity="0.05"/>
</g>
<g clip-path="url(#clip5_6_753)">
<rect x="56.5123" y="66.3345" width="73" height="16" rx="8" fill="white" fill-opacity="0.05"/>
<rect x="133.512" y="66.3345" width="64" height="16" rx="8" fill="white" fill-opacity="0.05"/>
<rect x="201.512" y="66.3345" width="31" height="16" rx="8" fill="white" fill-opacity="0.05"/>
<rect x="236.512" y="66.3345" width="57" height="16" rx="8" fill="white" fill-opacity="0.05"/>
</g>
<g clip-path="url(#clip6_6_753)">
<rect x="56.5123" y="88.3345" width="27" height="16" rx="8" fill="white" fill-opacity="0.05"/>
<rect x="87.5123" y="88.3345" width="58" height="16" rx="8" fill="white" fill-opacity="0.05"/>
<rect x="149.512" y="88.3345" width="38" height="16" rx="8" fill="white" fill-opacity="0.05"/>
</g>
<rect x="56.5123" y="110.334" width="242" height="217" rx="8" fill="white" fill-opacity="0.03"/>
</g>
</g>
<g clip-path="url(#clip7_6_753)">
<circle cx="20.5123" cy="371.334" r="20" fill="white" fill-opacity="0.08"/>
<g clip-path="url(#clip8_6_753)">
<rect x="56.5123" y="351.334" width="87" height="16" rx="8" fill="white" fill-opacity="0.16"/>
<g clip-path="url(#clip9_6_753)">
<rect x="56.5123" y="373.334" width="39" height="16" rx="8" fill="white" fill-opacity="0.05"/>
<rect x="99.5123" y="373.334" width="57" height="16" rx="8" fill="white" fill-opacity="0.05"/>
</g>
</g>
</g>
<g clip-path="url(#clip10_6_753)">
<circle cx="20.5123" cy="435.334" r="20" fill="white" fill-opacity="0.08"/>
<g clip-path="url(#clip11_6_753)">
<rect x="56.5123" y="415.334" width="118" height="16" rx="8" fill="white" fill-opacity="0.16"/>
<g clip-path="url(#clip12_6_753)">
<rect x="56.5123" y="437.334" width="46" height="16" rx="8" fill="white" fill-opacity="0.05"/>
<rect x="106.512" y="437.334" width="40" height="16" rx="8" fill="white" fill-opacity="0.05"/>
<rect x="150.512" y="437.334" width="47" height="16" rx="8" fill="white" fill-opacity="0.05"/>
<rect x="201.512" y="437.334" width="31" height="16" rx="8" fill="white" fill-opacity="0.05"/>
<rect x="236.512" y="437.334" width="47" height="16" rx="8" fill="white" fill-opacity="0.05"/>
<rect x="287.512" y="437.334" width="34" height="16" rx="8" fill="white" fill-opacity="0.05"/>
</g>
<g clip-path="url(#clip13_6_753)">
<rect x="56.5123" y="459.334" width="75" height="16" rx="8" fill="white" fill-opacity="0.05"/>
<rect x="135.512" y="459.334" width="57" height="16" rx="8" fill="white" fill-opacity="0.05"/>
<rect x="196.512" y="459.334" width="54" height="16" rx="8" fill="white" fill-opacity="0.05"/>
<rect x="254.512" y="459.334" width="27" height="16" rx="8" fill="white" fill-opacity="0.05"/>
</g>
<g clip-path="url(#clip14_6_753)">
<rect x="56.5123" y="481.334" width="45" height="16" rx="8" fill="white" fill-opacity="0.05"/>
<rect x="105.512" y="481.334" width="43" height="16" rx="8" fill="white" fill-opacity="0.05"/>
<rect x="152.512" y="481.334" width="69" height="16" rx="8" fill="white" fill-opacity="0.05"/>
</g>
<g clip-path="url(#clip15_6_753)">
<rect x="56.5123" y="503.334" width="57" height="16" rx="8" fill="white" fill-opacity="0.05"/>
<rect x="117.512" y="503.334" width="38" height="16" rx="8" fill="white" fill-opacity="0.05"/>
</g>
</g>
</g>
<g clip-path="url(#clip16_6_753)">
<circle cx="20.5123" cy="563.334" r="20" fill="white" fill-opacity="0.08"/>
<g clip-path="url(#clip17_6_753)">
<rect x="56.5123" y="543.334" width="95" height="16" rx="8" fill="white" fill-opacity="0.16"/>
<g clip-path="url(#clip18_6_753)">
<rect x="56.5123" y="565.334" width="77" height="16" rx="8" fill="white" fill-opacity="0.05"/>
<rect x="137.512" y="565.334" width="29" height="16" rx="8" fill="white" fill-opacity="0.05"/>
</g>
<g clip-path="url(#clip19_6_753)">
<rect x="56.5123" y="587.334" width="51" height="16" rx="8" fill="white" fill-opacity="0.05"/>
<rect x="111.512" y="587.334" width="51" height="16" rx="8" fill="white" fill-opacity="0.05"/>
</g>
</g>
</g>
<g clip-path="url(#clip20_6_753)">
<circle cx="20.5123" cy="647.334" r="20" fill="white" fill-opacity="0.08"/>
<g clip-path="url(#clip21_6_753)">
<rect x="56.5123" y="627.334" width="65" height="16" rx="8" fill="white" fill-opacity="0.16"/>
<g clip-path="url(#clip22_6_753)">
<rect x="56.5123" y="649.334" width="34" height="16" rx="8" fill="white" fill-opacity="0.05"/>
<rect x="94.5123" y="649.334" width="78" height="16" rx="8" fill="white" fill-opacity="0.05"/>
<rect x="176.512" y="649.334" width="77" height="16" rx="8" fill="white" fill-opacity="0.05"/>
<rect x="257.512" y="649.334" width="47" height="16" rx="8" fill="white" fill-opacity="0.05"/>
<rect x="308.512" y="649.334" width="74" height="16" rx="8" fill="white" fill-opacity="0.05"/>
<rect x="386.512" y="649.334" width="34" height="16" rx="8" fill="white" fill-opacity="0.05"/>
</g>
<g clip-path="url(#clip23_6_753)">
<rect x="56.5123" y="671.334" width="70" height="16" rx="8" fill="white" fill-opacity="0.05"/>
<rect x="130.512" y="671.334" width="53" height="16" rx="8" fill="white" fill-opacity="0.05"/>
<rect x="187.512" y="671.334" width="42" height="16" rx="8" fill="white" fill-opacity="0.05"/>
<rect x="233.512" y="671.334" width="75" height="16" rx="8" fill="white" fill-opacity="0.05"/>
</g>
<g clip-path="url(#clip24_6_753)">
<rect x="56.5123" y="693.334" width="74" height="16" rx="8" fill="white" fill-opacity="0.05"/>
<rect x="134.512" y="693.334" width="57" height="16" rx="8" fill="white" fill-opacity="0.05"/>
<rect x="195.512" y="693.334" width="51" height="16" rx="8" fill="white" fill-opacity="0.05"/>
</g>
<rect x="56.5123" y="715.334" width="201" height="111" rx="8" fill="white" fill-opacity="0.03"/>
</g>
</g>
<g clip-path="url(#clip25_6_753)">
<circle cx="20.5123" cy="870.334" r="20" fill="white" fill-opacity="0.08"/>
<g clip-path="url(#clip26_6_753)">
<rect x="56.5123" y="850.334" width="116" height="16" rx="8" fill="white" fill-opacity="0.16"/>
<g clip-path="url(#clip27_6_753)">
<rect x="56.5123" y="872.334" width="62" height="16" rx="8" fill="white" fill-opacity="0.05"/>
<rect x="122.512" y="872.334" width="54" height="16" rx="8" fill="white" fill-opacity="0.05"/>
<rect x="180.512" y="872.334" width="73" height="16" rx="8" fill="white" fill-opacity="0.05"/>
<rect x="257.512" y="872.334" width="45" height="16" rx="8" fill="white" fill-opacity="0.05"/>
<rect x="306.512" y="872.334" width="25" height="16" rx="8" fill="white" fill-opacity="0.05"/>
<rect x="335.512" y="872.334" width="43" height="16" rx="8" fill="white" fill-opacity="0.05"/>
</g>
<g clip-path="url(#clip28_6_753)">
<rect x="56.5123" y="894.334" width="48" height="16" rx="8" fill="white" fill-opacity="0.05"/>
<rect x="108.512" y="894.334" width="71" height="16" rx="8" fill="white" fill-opacity="0.05"/>
<rect x="183.512" y="894.334" width="41" height="16" rx="8" fill="white" fill-opacity="0.05"/>
<rect x="228.512" y="894.334" width="38" height="16" rx="8" fill="white" fill-opacity="0.05"/>
<rect x="270.512" y="894.334" width="64" height="16" rx="8" fill="white" fill-opacity="0.05"/>
</g>
<g clip-path="url(#clip29_6_753)">
<rect x="56.5123" y="916.334" width="61" height="16" rx="8" fill="white" fill-opacity="0.05"/>
<rect x="121.512" y="916.334" width="57" height="16" rx="8" fill="white" fill-opacity="0.05"/>
<rect x="182.512" y="916.334" width="26" height="16" rx="8" fill="white" fill-opacity="0.05"/>
<rect x="212.512" y="916.334" width="62" height="16" rx="8" fill="white" fill-opacity="0.05"/>
</g>
</g>
</g>
<g clip-path="url(#clip30_6_753)">
<circle cx="20.5123" cy="976.334" r="20" fill="white" fill-opacity="0.08"/>
<g clip-path="url(#clip31_6_753)">
<rect x="56.5123" y="956.334" width="102" height="16" rx="8" fill="white" fill-opacity="0.16"/>
<g clip-path="url(#clip32_6_753)">
<rect x="56.5123" y="978.334" width="49" height="16" rx="8" fill="white" fill-opacity="0.05"/>
<rect x="109.512" y="978.334" width="38" height="16" rx="8" fill="white" fill-opacity="0.05"/>
<rect x="151.512" y="978.334" width="76" height="16" rx="8" fill="white" fill-opacity="0.05"/>
<rect x="231.512" y="978.334" width="65" height="16" rx="8" fill="white" fill-opacity="0.05"/>
<rect x="300.512" y="978.334" width="34" height="16" rx="8" fill="white" fill-opacity="0.05"/>
<rect x="338.512" y="978.334" width="75" height="16" rx="8" fill="white" fill-opacity="0.05"/>
</g>
<g clip-path="url(#clip33_6_753)">
<rect x="56.5123" y="1000.33" width="52" height="16" rx="8" fill="white" fill-opacity="0.05"/>
<rect x="112.512" y="1000.33" width="75" height="16" rx="8" fill="white" fill-opacity="0.05"/>
<rect x="191.512" y="1000.33" width="67" height="16" rx="8" fill="white" fill-opacity="0.05"/>
<rect x="262.512" y="1000.33" width="78" height="16" rx="8" fill="white" fill-opacity="0.05"/>
</g>
<g clip-path="url(#clip34_6_753)">
<rect x="56.5123" y="1022.33" width="40" height="16" rx="8" fill="white" fill-opacity="0.05"/>
<rect x="100.512" y="1022.33" width="69" height="16" rx="8" fill="white" fill-opacity="0.05"/>
<rect x="173.512" y="1022.33" width="61" height="16" rx="8" fill="white" fill-opacity="0.05"/>
</g>
</g>
</g>
</g>
<defs>
<clipPath id="clip0_6_753">
<rect width="435" height="1038" fill="white" transform="translate(0.512268 0.334473)"/>
</clipPath>
<clipPath id="clip1_6_753">
<rect width="435" height="327" fill="white" transform="translate(0.512268 0.334473)"/>
</clipPath>
<clipPath id="clip2_6_753">
<rect width="379" height="327" fill="white" transform="translate(56.5123 0.334473)"/>
</clipPath>
<clipPath id="clip3_6_753">
<rect width="379" height="16" fill="white" transform="translate(56.5123 22.3345)"/>
</clipPath>
<clipPath id="clip4_6_753">
<rect width="340" height="16" fill="white" transform="translate(56.5123 44.3345)"/>
</clipPath>
<clipPath id="clip5_6_753">
<rect width="237" height="16" fill="white" transform="translate(56.5123 66.3345)"/>
</clipPath>
<clipPath id="clip6_6_753">
<rect width="131" height="16" fill="white" transform="translate(56.5123 88.3345)"/>
</clipPath>
<clipPath id="clip7_6_753">
<rect width="156" height="40" fill="white" transform="translate(0.512268 351.334)"/>
</clipPath>
<clipPath id="clip8_6_753">
<rect width="100" height="38" fill="white" transform="translate(56.5123 351.334)"/>
</clipPath>
<clipPath id="clip9_6_753">
<rect width="100" height="16" fill="white" transform="translate(56.5123 373.334)"/>
</clipPath>
<clipPath id="clip10_6_753">
<rect width="321" height="104" fill="white" transform="translate(0.512268 415.334)"/>
</clipPath>
<clipPath id="clip11_6_753">
<rect width="265" height="104" fill="white" transform="translate(56.5123 415.334)"/>
</clipPath>
<clipPath id="clip12_6_753">
<rect width="265" height="16" fill="white" transform="translate(56.5123 437.334)"/>
</clipPath>
<clipPath id="clip13_6_753">
<rect width="225" height="16" fill="white" transform="translate(56.5123 459.334)"/>
</clipPath>
<clipPath id="clip14_6_753">
<rect width="165" height="16" fill="white" transform="translate(56.5123 481.334)"/>
</clipPath>
<clipPath id="clip15_6_753">
<rect width="99" height="16" fill="white" transform="translate(56.5123 503.334)"/>
</clipPath>
<clipPath id="clip16_6_753">
<rect width="166" height="60" fill="white" transform="translate(0.512268 543.334)"/>
</clipPath>
<clipPath id="clip17_6_753">
<rect width="110" height="60" fill="white" transform="translate(56.5123 543.334)"/>
</clipPath>
<clipPath id="clip18_6_753">
<rect width="110" height="16" fill="white" transform="translate(56.5123 565.334)"/>
</clipPath>
<clipPath id="clip19_6_753">
<rect width="106" height="16" fill="white" transform="translate(56.5123 587.334)"/>
</clipPath>
<clipPath id="clip20_6_753">
<rect width="420" height="199" fill="white" transform="translate(0.512268 627.334)"/>
</clipPath>
<clipPath id="clip21_6_753">
<rect width="364" height="199" fill="white" transform="translate(56.5123 627.334)"/>
</clipPath>
<clipPath id="clip22_6_753">
<rect width="364" height="16" fill="white" transform="translate(56.5123 649.334)"/>
</clipPath>
<clipPath id="clip23_6_753">
<rect width="252" height="16" fill="white" transform="translate(56.5123 671.334)"/>
</clipPath>
<clipPath id="clip24_6_753">
<rect width="190" height="16" fill="white" transform="translate(56.5123 693.334)"/>
</clipPath>
<clipPath id="clip25_6_753">
<rect width="378" height="82" fill="white" transform="translate(0.512268 850.334)"/>
</clipPath>
<clipPath id="clip26_6_753">
<rect width="322" height="82" fill="white" transform="translate(56.5123 850.334)"/>
</clipPath>
<clipPath id="clip27_6_753">
<rect width="322" height="16" fill="white" transform="translate(56.5123 872.334)"/>
</clipPath>
<clipPath id="clip28_6_753">
<rect width="278" height="16" fill="white" transform="translate(56.5123 894.334)"/>
</clipPath>
<clipPath id="clip29_6_753">
<rect width="218" height="16" fill="white" transform="translate(56.5123 916.334)"/>
</clipPath>
<clipPath id="clip30_6_753">
<rect width="413" height="82" fill="white" transform="translate(0.512268 956.334)"/>
</clipPath>
<clipPath id="clip31_6_753">
<rect width="357" height="82" fill="white" transform="translate(56.5123 956.334)"/>
</clipPath>
<clipPath id="clip32_6_753">
<rect width="357" height="16" fill="white" transform="translate(56.5123 978.334)"/>
</clipPath>
<clipPath id="clip33_6_753">
<rect width="284" height="16" fill="white" transform="translate(56.5123 1000.33)"/>
</clipPath>
<clipPath id="clip34_6_753">
<rect width="178" height="16" fill="white" transform="translate(56.5123 1022.33)"/>
</clipPath>
</defs>
</svg>
