<svg xmlns="http://www.w3.org/2000/svg" xmlns:xlink="http://www.w3.org/1999/xlink" version="1.1" viewBox="0 0 1920 1080">
  <g>
    <polygon points="928.12,479.4 940.73,467.84 924.98,459.3"/>
    <path d="M1424.97,136.93c-83.93-38.42-172.53-65.68-263.55-81.08c-12.45,22.26-23.72,45.17-33.76,68.62    c-96.95-14.61-195.54-14.61-292.48,0c-10.04-23.45-21.31-46.36-33.76-68.62c-91.07,15.53-179.73,42.85-263.75,81.28    c-166.79,246.77-212,487.4-189.4,724.63c97.68,72.17,207,127.05,323.23,162.27c26.17-35.2,49.33-72.54,69.23-111.63    c-37.8-14.12-74.27-31.53-109.02-52.05c9.14-6.63,18.09-13.46,26.73-20.09c204.67,96.25,441.59,96.25,646.26,0    c8.74,7.13,17.68,13.97,26.73,20.09c-34.81,20.55-71.35,38-109.22,52.15c19.87,39.07,43.03,76.38,69.23,111.53    c116.33-35.07,225.74-89.93,323.43-162.17C1641.4,586.76,1569.56,348.33,1424.97,136.93z M1435.61,524.71    c-0.56,16.13-10.67,37.96-49.23,37.96c-19.17-0.15-68.83,1.11-68.83,1.11l-98.01,0.07c0,0,29.06,21.73,39.6,27.96    c7.17,4.24,18.83,15.37,22.73,24.58c2.57,6.08,1.53,18.61-0.07,23.52c-2.69,8.26-9.92,16.65-14.82,20.73    c-6.98,5.82-24.44,12.17-35.72,6.87c-22.36-10.38-223.21-151.06-223.21-151.06l-55.78,56.55c0,0,39.1,160.91,48.61,214.95    c1.76,9.99-1.91,28.72-12.34,36.78c-2.85,2.2-5.36,5.07-12.32,7.48c-4.18,1.44-19.75,5.18-32.26-2.79    c-6.08-3.02-11.62-7.8-14.7-14.01c-11.87-23.95-26.64-103.19-26.64-103.19l-16.73-69.52c0,0-99.97,106.29-114.89,117.9    c-10.17,8.8-23.69,7.54-31.25,6.36c-10.23-1.6-26.66-9.48-29.71-30.52c-4.23-25.22,19.25-227.55,19.25-227.55    s-99.43,54.74-141.31,72.27c-37.94,10.87-61.7-23.88-52.62-48.14c7.3-20.2,91.77-255.03,130.81-336.38    c6.09-12.69,28.49-27.59,47.95-19.7c30.48,11.65,29.13,37.94,25.57,49.27c-3.56,11.33-92.4,236.81-92.4,236.81    s87.91-50.29,118.62-62.7c6.19-1.92,14.07-2.41,25.75,1.42c11.52,3.78,22.7,16.35,24.81,26.5c6.22,25.54-16.5,187.06-16.5,187.06    l64.63-65.71L828.55,391.3c0,0-5.83-29.55,12.55-43.38c18.38-13.83,32.52-9.37,42.21-5.02c55.66,24.98,104.32,60.05,114.16,67.87    c-0.18,0.34,14.33-14.73,20.95-21.34c6.62-6.61,49.24-49.86,65.48-66.64c10.55-10.53,28.17-12.69,37.43-9    c9.26,3.68,18.95,7.99,27.88,28.62c1.5,4.89,6.13,16.9-4.05,29.25c-10.19,12.36-79.47,85.01-79.47,85.01l58.74,41.33    c0,0,60.64-173.41,83.51-236.15c12.56-22.76,37.26-21.61,49.79-17.5c11.52,3.78,30.85,16.59,24.64,41.72    c-6.18,25-68.77,197.78-68.77,197.78s178.95-0.44,184.63-0.39C1426.21,486.39,1436.09,510.81,1435.61,524.71z"/>
  </g>
</svg>