<?xml version="1.0" encoding="utf-8"?>
<!-- Generator: Adobe Illustrator 24.2.3, SVG Export Plug-In . SVG Version: 6.00 Build 0)  -->
<svg version="1.1" id="레이어_1" xmlns="http://www.w3.org/2000/svg" xmlns:xlink="http://www.w3.org/1999/xlink" x="0px"
	 y="0px" viewBox="0 0 36 36" style="enable-background:new 0 0 36 36;" xml:space="preserve">
<style type="text/css">
	.st0{fill:#D9D9D9;}
</style>
<path class="st0" d="M35.2,32L19.5,2c-0.8-1.6-2.2-1.6-3.1,0L0.8,32c-0.8,1.6,0,3,1.8,3h30.7C35.2,35,36,33.7,35.2,32z M15.8,10.7
	c0-1.3,1-2.1,2.2-2.1s2.2,0.8,2.2,2.1v11.9c0,1.3-1,2.1-2.2,2.1c-1.3,0-2.2-0.8-2.2-2.1V10.7z M18,31.4c-1.3,0-2.4-1.1-2.4-2.4
	s1.1-2.4,2.4-2.4s2.4,1.1,2.4,2.4S19.3,31.4,18,31.4z"/>
</svg>
